<svg width="1392" height="1542" viewBox="0 0 1392 1542" fill="none" xmlns="http://www.w3.org/2000/svg">
<g clip-path="url(#clip0_2_166)">
<path d="M578.701 263.745C578.701 256.095 581.898 251.909 587.684 251.909C592.442 251.909 595.107 254.573 595.754 259.559L592.48 260.32C591.795 256.552 590.463 254.916 587.608 254.916C583.573 254.916 582.203 258.265 582.203 263.745C582.203 269.529 583.611 272.726 587.532 272.726C590.691 272.726 591.947 271.014 592.671 267.17L595.944 267.893C595.221 272.993 592.594 275.657 587.532 275.657C581.632 275.657 578.701 271.432 578.701 263.745ZM609.76 275.619C604.469 275.619 601.728 272.574 601.728 266.713V252.366H605.23V266.447C605.23 270.176 606.182 272.726 609.76 272.726C613.224 272.726 614.251 270.557 614.251 266.637V252.366H617.754V266.713C617.754 272.574 614.975 275.619 609.76 275.619ZM624.299 275.2V252.366H631.683C637.964 252.366 640.781 255.943 640.781 263.631C640.781 271.242 637.241 275.2 631.645 275.2H624.299ZM627.801 272.308H631.417C635.718 272.308 637.279 269.111 637.279 263.631C637.279 257.427 635.604 255.258 631.265 255.258H627.801V272.308ZM644.511 275.2L651.553 252.366H656.997L664.039 275.2H660.308L658.557 268.997H649.879L648.128 275.2H644.511ZM650.64 266.219H657.796L656.959 263.326C656.235 260.738 655.512 257.694 655.017 255.258H653.495C652.924 257.732 652.163 260.7 651.439 263.326L650.64 266.219ZM694.563 268.616V260.053H689.995V257.427H694.563V252.366H697.875V257.427H706.744V260.053H697.875V268.121C697.875 271.204 699.055 272.802 702.1 272.802C703.394 272.802 704.765 272.498 706.516 271.737L707.163 274.325C705.183 275.2 703.432 275.657 701.377 275.657C696.619 275.657 694.563 272.688 694.563 268.616ZM713.786 275.2V249.702H717.098V261.842H717.516C718.696 259.178 720.714 256.971 723.759 256.971C726.728 256.971 728.555 259.14 728.555 263.098V275.2H725.244V263.859C725.244 261.385 724.254 259.977 722.237 259.977C719.153 259.977 717.098 262.337 717.098 265.419V275.2H713.786ZM736.775 275.2V257.427H739.783V262.679L740.125 262.717C741.495 258.873 744.084 257.047 747.243 257.047C748.956 257.047 750.251 257.427 752.04 258.303L751.278 261.309C749.718 260.472 748.119 260.015 746.672 260.015C742.676 260.015 740.049 262.489 740.049 266.904V275.2H736.775ZM766.007 275.657C760.602 275.657 757.367 272.384 757.367 266.447C757.367 260.51 760.793 256.971 766.007 256.971C771.108 256.971 773.811 260.129 773.811 265.039C773.811 265.572 773.773 266.409 773.659 267.132H760.678C760.869 270.938 762.582 273.031 766.007 273.031C768.9 273.031 770.233 271.47 770.766 269.644L773.583 270.367C772.783 273.449 770.423 275.657 766.007 275.657ZM760.716 264.925H770.728C770.651 261.347 769.091 259.406 765.931 259.406C762.848 259.406 761.059 261.195 760.716 264.925ZM785.116 275.581C781.843 275.581 779.521 273.754 779.521 270.557C779.521 267.589 781.538 265.457 785.992 265.457H791.816V263.555C791.816 261.347 790.674 259.635 787.895 259.635C785.497 259.635 784.05 260.929 783.365 262.603L780.358 261.537C781.31 258.988 784.012 256.971 787.971 256.971C792.805 256.971 795.127 259.52 795.127 263.516V275.2H792.158V271.204H791.549C790.522 273.716 788.352 275.581 785.116 275.581ZM791.816 267.474H786.639C784.088 267.474 782.604 268.502 782.604 270.367C782.604 271.775 783.784 273.031 786.334 273.031C789.57 273.031 791.816 271.128 791.816 268.578V267.474ZM801.292 266.409C801.292 260.472 803.995 256.971 807.953 256.971C810.961 256.971 812.864 259.026 813.854 261.614H814.31V249.702H817.622V275.2H814.31V270.9H813.854C812.788 273.525 810.58 275.657 807.801 275.657C804.071 275.657 801.292 272.27 801.292 266.409ZM814.31 267.665V265.191C814.31 262.146 812.255 259.977 809.476 259.977C806.393 259.977 804.528 262.184 804.528 266.371C804.528 270.519 806.355 272.802 809.476 272.802C812.217 272.802 814.31 270.595 814.31 267.665Z" fill="#7CB8FE"/>
<path d="M694.578 306.914L714.674 317.588C719.695 320.255 718.942 327.671 713.488 329.275L692.07 335.573C686.29 337.272 685.91 345.311 691.503 347.547L704.688 352.821C710.32 355.072 709.882 363.183 704.044 364.818L691.383 368.362C685.178 370.099 685.216 378.908 691.435 380.592L701.284 383.258C707.199 384.86 707.63 393.084 701.914 395.296L700.55 395.824C695.415 397.812 695.077 404.95 700.004 407.412L703.17 408.996C706.862 410.841 707.837 415.664 705.149 418.797L691.406 434.829" stroke="#7CB8FE"/>
<path d="M683.258 443.597L686.398 428.353L698.031 438.693L683.258 443.597Z" fill="#7CB8FE"/>
<path d="M511.9 520.569C511.9 512.92 515.098 508.733 520.884 508.733C525.642 508.733 528.306 511.397 528.953 516.383L525.68 517.144C524.995 513.376 523.662 511.74 520.807 511.74C516.772 511.74 515.402 515.089 515.402 520.569C515.402 526.354 516.811 529.551 520.731 529.551C523.891 529.551 525.147 527.838 525.87 523.994L529.144 524.717C528.42 529.817 525.794 532.481 520.731 532.481C514.831 532.481 511.9 528.257 511.9 520.569ZM542.959 532.443C537.668 532.443 534.928 529.398 534.928 523.538V509.19H538.43V523.271C538.43 527.001 539.381 529.551 542.959 529.551C546.423 529.551 547.451 527.381 547.451 523.462V509.19H550.953V523.538C550.953 529.398 548.174 532.443 542.959 532.443ZM557.5 532.024V509.19H564.885C571.166 509.19 573.983 512.767 573.983 520.455C573.983 528.066 570.443 532.024 564.847 532.024H557.5ZM561.002 529.132H564.619C568.92 529.132 570.481 525.935 570.481 520.455C570.481 514.252 568.806 512.082 564.466 512.082H561.002V529.132ZM577.711 532.024L584.753 509.19H590.196L597.238 532.024H593.508L591.757 525.821H583.078L581.327 532.024H577.711ZM583.839 523.043H590.996L590.158 520.151C589.435 517.563 588.712 514.518 588.217 512.082H586.694C586.123 514.556 585.362 517.525 584.639 520.151L583.839 523.043ZM627.763 525.441V516.878H623.195V514.252H627.763V509.19H631.074V514.252H639.944V516.878H631.074V524.946C631.074 528.028 632.254 529.627 635.3 529.627C636.594 529.627 637.964 529.322 639.715 528.561L640.362 531.149C638.383 532.024 636.632 532.481 634.576 532.481C629.818 532.481 627.763 529.513 627.763 525.441ZM646.986 532.024V506.526H650.297V518.666H650.716C651.896 516.002 653.913 513.795 656.959 513.795C659.928 513.795 661.755 515.964 661.755 519.922V532.024H658.443V520.683C658.443 518.21 657.454 516.802 655.436 516.802C652.353 516.802 650.297 519.161 650.297 522.244V532.024H646.986ZM669.975 532.024V514.252H672.982V519.504L673.325 519.542C674.695 515.698 677.284 513.871 680.443 513.871C682.156 513.871 683.45 514.252 685.239 515.127L684.478 518.134C682.917 517.296 681.318 516.84 679.872 516.84C675.875 516.84 673.249 519.313 673.249 523.728V532.024H669.975ZM699.207 532.481C693.802 532.481 690.566 529.208 690.566 523.271C690.566 517.334 693.992 513.795 699.207 513.795C704.308 513.795 707.01 516.954 707.01 521.863C707.01 522.396 706.972 523.233 706.858 523.956H693.878C694.068 527.762 695.781 529.855 699.207 529.855C702.1 529.855 703.432 528.295 703.965 526.468L706.782 527.191C705.983 530.274 703.623 532.481 699.207 532.481ZM693.916 521.749H703.927C703.851 518.172 702.29 516.231 699.131 516.231C696.048 516.231 694.259 518.019 693.916 521.749ZM718.316 532.405C715.042 532.405 712.72 530.578 712.72 527.381C712.72 524.413 714.738 522.282 719.191 522.282H725.015V520.379C725.015 518.172 723.873 516.459 721.095 516.459C718.696 516.459 717.25 517.753 716.565 519.428L713.558 518.362C714.509 515.812 717.212 513.795 721.171 513.795C726.005 513.795 728.327 516.345 728.327 520.341V532.024H725.358V528.028H724.749C723.721 530.54 721.551 532.405 718.316 532.405ZM725.015 524.299H719.838C717.288 524.299 715.803 525.326 715.803 527.191C715.803 528.599 716.984 529.855 719.534 529.855C722.769 529.855 725.015 527.952 725.015 525.402V524.299ZM734.491 523.233C734.491 517.296 737.194 513.795 741.153 513.795C744.16 513.795 746.063 515.85 747.053 518.438H747.51V506.526H750.822V532.024H747.51V527.724H747.053C745.987 530.35 743.779 532.481 741.001 532.481C737.27 532.481 734.491 529.094 734.491 523.233ZM747.51 524.489V522.015C747.51 518.971 745.454 516.802 742.676 516.802C739.592 516.802 737.727 519.009 737.727 523.195C737.727 527.343 739.554 529.627 742.676 529.627C745.416 529.627 747.51 527.42 747.51 524.489ZM796.726 523.233C796.726 529.094 793.909 532.481 790.293 532.481C787.514 532.481 785.23 530.35 784.165 527.724H783.708V532.024H780.396V506.526H783.708V518.438H784.165C785.192 515.85 787.096 513.795 790.141 513.795C793.947 513.795 796.726 517.296 796.726 523.233ZM783.708 522.015V524.489C783.708 527.42 785.725 529.627 788.58 529.627C791.702 529.627 793.491 527.343 793.491 523.195C793.491 519.009 791.664 516.802 788.618 516.802C785.687 516.802 783.708 518.971 783.708 522.015ZM802.053 532.024V529.398H808.791V509.152H802.396V506.526H812.064V529.398H818.231V532.024H802.053ZM823.786 523.081C823.786 517.601 827.136 513.795 832.427 513.795C837.68 513.795 841.03 517.601 841.03 523.081C841.03 528.523 837.947 532.481 832.427 532.481C826.87 532.481 823.786 528.523 823.786 523.081ZM827.098 523.043C827.098 526.849 828.659 529.779 832.389 529.779C836.12 529.779 837.718 526.849 837.718 523.043C837.718 519.237 836.005 516.497 832.427 516.497C828.811 516.497 827.098 519.237 827.098 523.043ZM846.319 523.271C846.319 517.334 849.593 513.795 855.036 513.795C859.566 513.795 862.078 515.926 862.839 519.846L859.832 520.531C859.223 518.057 857.929 516.497 854.96 516.497C851.496 516.497 849.669 518.742 849.669 523.157C849.669 527.153 851.268 529.741 855.036 529.741C857.967 529.741 859.413 527.838 859.946 525.745L862.915 526.658C862.116 530.35 859.337 532.481 855.074 532.481C849.44 532.481 846.319 529.132 846.319 523.271ZM870.414 532.024V506.526H873.688V521.635H877.152L882.291 514.252H885.831V515.013L879.55 522.967L886.478 531.263V532.024H882.976L877.304 524.489H873.688V532.024H870.414Z" fill="#7CB8FE"/>
<path d="M901.823 563.739H495.792V833.249H901.823V563.739Z" fill="#7CB8FE" fill-opacity="0.1"/>
<path d="M900.765 564.796H496.85V832.192H900.765V564.796Z" stroke="#7CB8FE" stroke-opacity="0.5" stroke-dasharray="8 8"/>
<path d="M512.71 589.11H884.905V639.853H512.71V589.11Z" fill="#7CB8FE" fill-opacity="0.1"/>
<mask id="mask0_2_166" style="mask-type:luminance" maskUnits="userSpaceOnUse" x="512" y="589" width="373" height="51">
<path d="M512.71 589.11H884.905V639.853H512.71V589.11Z" fill="white"/>
</mask>
<g mask="url(#mask0_2_166)">
<path d="M512.71 589.11V587.326H510.925V589.11H512.71ZM884.905 589.11H886.689V587.326H884.905V589.11ZM884.905 639.853V641.629H886.689V639.853H884.905ZM512.71 639.853H510.925V641.629H512.71V639.853ZM512.71 590.892H884.905V587.326H512.71V590.892ZM883.12 589.11V639.853H886.689V589.11H883.12ZM884.905 638.077H512.71V641.629H884.905V638.077ZM514.495 639.853V589.11H510.925V639.853H514.495Z" fill="#7CB8FE"/>
</g>
<path d="M603.866 618.524L605.617 618.118C605.998 620.275 607.444 621.746 610.007 621.746C612.494 621.746 613.535 620.478 613.535 619.032C613.535 617.078 611.936 616.545 609.703 616.063C606.937 615.479 604.704 614.642 604.704 611.522C604.704 609.187 606.505 607.437 609.83 607.437C612.976 607.437 614.499 609.314 614.981 611.496L613.205 611.826C612.773 610.228 611.834 608.883 609.754 608.883C607.622 608.883 606.48 609.974 606.48 611.395C606.48 613.501 608.256 614.008 610.439 614.541C613.408 615.2 615.387 616.063 615.387 618.879C615.387 621.239 613.788 623.218 609.982 623.218C606.277 623.218 604.272 621.239 603.866 618.524ZM619.904 622.939V605.94H621.655V614.059H621.909C622.645 612.359 624.041 610.862 626.122 610.862C628.126 610.862 629.395 612.283 629.395 614.921V622.939H627.644V615.302C627.644 613.475 626.934 612.46 625.462 612.46C623.178 612.46 621.655 614.135 621.655 616.368V622.939H619.904ZM637.793 623.192C635.56 623.192 634.012 621.949 634.012 619.92C634.012 617.991 635.357 616.596 638.224 616.596H642.31V615.175C642.31 613.577 641.472 612.308 639.417 612.308C637.717 612.308 636.626 613.272 636.143 614.465L634.545 613.856C635.204 612.207 636.981 610.862 639.468 610.862C642.513 610.862 644.061 612.587 644.061 615.15V622.939H642.488V620.351H642.132C641.422 622 639.95 623.192 637.793 623.192ZM642.31 617.712H638.503C636.651 617.712 635.661 618.448 635.661 619.843C635.661 620.858 636.549 621.772 638.351 621.772C640.66 621.772 642.31 620.427 642.31 618.6V617.712ZM650.075 622.939V611.141H651.699V614.591L651.902 614.617C652.74 612.283 654.491 610.887 656.673 610.887C657.815 610.887 658.78 611.192 659.922 611.801L659.465 613.399C658.424 612.816 657.358 612.486 656.394 612.486C653.653 612.486 651.826 614.287 651.826 617.154V622.939H650.075ZM669.385 623.218C665.807 623.218 663.777 620.96 663.777 617.078C663.777 613.171 666.061 610.862 669.385 610.862C672.633 610.862 674.435 612.968 674.435 616.19C674.435 616.469 674.41 616.976 674.359 617.408H665.528C665.629 620.173 666.847 621.772 669.36 621.772C671.415 621.772 672.405 620.63 672.811 619.311L674.333 619.691C673.775 621.797 672.126 623.218 669.385 623.218ZM665.553 616.165H672.811C672.735 613.653 671.644 612.232 669.334 612.232C667.126 612.232 665.807 613.551 665.553 616.165ZM678.165 617.078C678.165 613.221 680.018 610.862 682.784 610.862C684.865 610.862 686.134 612.207 686.794 613.906H687.047V605.94H688.798V622.939H687.047V620.148H686.768C686.058 621.873 684.484 623.218 682.657 623.218C680.069 623.218 678.165 620.909 678.165 617.078ZM687.047 617.915V616.266C687.047 614.059 685.55 612.46 683.52 612.46C681.261 612.46 679.891 614.084 679.891 617.078C679.891 620.021 681.236 621.695 683.52 621.695C685.525 621.695 687.047 620.097 687.047 617.915ZM708.057 622.939V607.716H711.102L712.701 614.82C712.955 616.012 713.183 617.56 713.539 619.387H713.97C714.351 616.976 714.681 615.277 715.188 612.968L716.279 607.716H719.274V622.939H717.599V615.15C717.599 613.221 717.726 610.811 717.802 609.213H717.218C716.939 610.913 716.66 612.841 716.279 614.465L714.731 621.01H712.65L710.95 613.957C710.62 612.638 710.29 610.71 710.011 609.213H709.529C709.58 610.786 709.707 613.069 709.707 614.769V622.939H708.057ZM728.763 623.218C725.185 623.218 723.154 620.96 723.154 617.078C723.154 613.171 725.438 610.862 728.763 610.862C732.011 610.862 733.813 612.968 733.813 616.19C733.813 616.469 733.787 616.976 733.737 617.408H724.905C725.007 620.173 726.225 621.772 728.737 621.772C730.793 621.772 731.783 620.63 732.189 619.311L733.711 619.691C733.153 621.797 731.503 623.218 728.763 623.218ZM724.931 616.165H732.189C732.112 613.653 731.021 612.232 728.712 612.232C726.504 612.232 725.185 613.551 724.931 616.165ZM737.949 622.939V611.141H739.345V612.942H739.573C739.954 611.648 740.791 610.913 741.933 610.913C743.05 610.913 743.76 611.598 743.938 612.942H744.192C744.573 611.75 745.359 610.913 746.577 610.913C747.948 610.913 748.836 611.928 748.836 613.678V622.939H747.262V614.109C747.262 613.12 746.806 612.435 745.892 612.435C744.826 612.435 744.166 613.196 744.166 614.744V622.939H742.619V614.109C742.619 613.018 742.136 612.435 741.248 612.435C740.284 612.435 739.522 613.247 739.522 614.591V622.939H737.949ZM752.564 617.002C752.564 613.424 754.772 610.862 758.198 610.862C761.598 610.862 763.806 613.424 763.806 617.002C763.806 620.554 761.827 623.218 758.198 623.218C754.544 623.218 752.564 620.554 752.564 617.002ZM754.315 616.976C754.315 619.59 755.482 621.746 758.172 621.746C760.862 621.746 762.055 619.59 762.055 616.976C762.055 614.338 760.786 612.333 758.198 612.333C755.609 612.333 754.315 614.338 754.315 616.976ZM768.831 622.939V611.141H770.455V614.591L770.658 614.617C771.495 612.283 773.246 610.887 775.429 610.887C776.571 610.887 777.535 611.192 778.677 611.801L778.22 613.399C777.18 612.816 776.114 612.486 775.15 612.486C772.409 612.486 770.582 614.287 770.582 617.154V622.939H768.831ZM781.695 627.252L781.974 625.704C782.507 625.806 782.989 625.856 783.496 625.856C785.019 625.856 785.958 625.45 787.176 622.913L781.72 611.141H783.674L785.349 615.353C786.06 617.129 787.1 619.615 787.811 621.569H788.318C788.978 619.564 789.968 617.027 790.602 615.353L792.201 611.141H794.053L788.699 623.091C787.328 626.11 785.882 627.429 783.496 627.429C782.735 627.429 782.151 627.328 781.695 627.252Z" fill="#7CB8FE"/>
<path d="M567.693 665.224L587.79 675.897C592.81 678.566 592.057 685.98 586.603 687.585L565.185 693.884C559.406 695.581 559.025 703.62 564.619 705.857L577.804 711.13C583.436 713.381 582.998 721.492 577.159 723.126L564.498 726.672C558.293 728.408 558.331 737.218 564.551 738.901L574.399 741.567C580.314 743.17 580.746 751.394 575.029 753.606L573.665 754.134C568.531 756.122 568.193 763.26 573.12 765.723L576.286 767.304C579.978 769.15 580.953 773.973 578.265 777.106L564.521 793.139" stroke="#7CB8FE"/>
<path d="M556.373 801.907L559.514 786.663L571.147 797.004L556.373 801.907Z" fill="#7CB8FE"/>
<path d="M593.07 665.224L613.167 675.897C618.187 678.566 617.434 685.98 611.98 687.585L590.562 693.884C584.783 695.581 584.402 703.62 589.995 705.857L603.181 711.13C608.812 713.381 608.375 721.492 602.536 723.126L589.875 726.672C583.67 728.408 583.708 737.218 589.928 738.901L599.776 741.567C605.691 743.17 606.123 751.394 600.406 753.606L599.042 754.134C593.908 756.122 593.569 763.26 598.497 765.723L601.663 767.304C605.355 769.15 606.33 773.973 603.642 777.106L589.898 793.139" stroke="#7CB8FE"/>
<path d="M581.75 801.907L584.89 786.663L596.524 797.004L581.75 801.907Z" fill="#7CB8FE"/>
<path d="M618.447 665.224L638.544 675.897C643.564 678.566 642.811 685.98 637.357 687.585L615.939 693.884C610.16 695.581 609.779 703.62 615.372 705.857L628.558 711.13C634.189 713.381 633.752 721.492 627.913 723.126L615.252 726.672C609.047 728.408 609.085 737.218 615.305 738.901L625.153 741.567C631.068 743.17 631.499 751.394 625.783 753.606L624.419 754.134C619.285 756.122 618.946 763.26 623.874 765.723L627.039 767.304C630.732 769.15 631.707 773.973 629.019 777.106L615.275 793.139" stroke="#7CB8FE"/>
<path d="M607.127 801.907L610.267 786.663L621.901 797.004L607.127 801.907Z" fill="#7CB8FE"/>
<path d="M643.824 665.224L663.921 675.897C668.941 678.566 668.188 685.98 662.734 687.585L641.316 693.884C635.536 695.581 635.156 703.62 640.749 705.857L653.935 711.13C659.566 713.381 659.129 721.492 653.29 723.126L640.629 726.672C634.424 728.408 634.462 737.218 640.682 738.901L650.53 741.567C656.445 743.17 656.876 751.394 651.16 753.606L649.796 754.134C644.662 756.122 644.323 763.26 649.251 765.723L652.416 767.304C656.109 769.15 657.084 773.973 654.396 777.106L640.652 793.139" stroke="#7CB8FE"/>
<path d="M632.504 801.907L635.644 786.663L647.277 797.004L632.504 801.907Z" fill="#7CB8FE"/>
<path d="M669.201 665.224L689.297 675.897C694.318 678.566 693.565 685.98 688.111 687.585L666.693 693.884C660.913 695.581 660.533 703.62 666.126 705.857L679.312 711.13C684.943 713.381 684.505 721.492 678.667 723.126L666.006 726.672C659.801 728.408 659.839 737.218 666.059 738.901L675.907 741.567C681.822 743.17 682.253 751.394 676.537 753.606L675.173 754.134C670.038 756.122 669.7 763.26 674.627 765.723L677.793 767.304C681.486 769.15 682.46 773.973 679.773 777.106L666.029 793.139" stroke="#7CB8FE"/>
<path d="M657.881 801.907L661.021 786.663L672.654 797.004L657.881 801.907Z" fill="#7CB8FE"/>
<path d="M694.578 665.224L714.674 675.897C719.695 678.566 718.942 685.98 713.488 687.585L692.07 693.884C686.29 695.581 685.91 703.62 691.503 705.857L704.688 711.13C710.32 713.381 709.882 721.492 704.044 723.126L691.383 726.672C685.178 728.408 685.216 737.218 691.435 738.901L701.284 741.567C707.199 743.17 707.63 751.394 701.914 753.606L700.55 754.134C695.415 756.122 695.077 763.26 700.004 765.723L703.17 767.304C706.862 769.15 707.837 773.973 705.149 777.106L691.406 793.139" stroke="#7CB8FE"/>
<path d="M683.258 801.907L686.398 786.663L698.031 797.004L683.258 801.907Z" fill="#7CB8FE"/>
<path d="M719.955 665.224L740.051 675.897C745.072 678.566 744.319 685.98 738.865 687.585L717.447 693.884C711.667 695.581 711.287 703.62 716.88 705.857L730.065 711.13C735.697 713.381 735.259 721.492 729.42 723.126L716.76 726.672C710.555 728.408 710.593 737.218 716.812 738.901L726.661 741.567C732.576 743.17 733.007 751.394 727.291 753.606L725.927 754.134C720.792 756.122 720.454 763.26 725.381 765.723L728.547 767.304C732.239 769.15 733.214 773.973 730.526 777.106L716.783 793.139" stroke="#7CB8FE"/>
<path d="M708.635 801.907L711.775 786.663L723.408 797.004L708.635 801.907Z" fill="#7CB8FE"/>
<path d="M745.332 665.224L765.428 675.897C770.448 678.566 769.696 685.98 764.242 687.585L742.824 693.884C737.044 695.581 736.663 703.62 742.257 705.857L755.442 711.13C761.074 713.381 760.636 721.492 754.797 723.126L742.136 726.672C735.932 728.408 735.97 737.218 742.189 738.901L752.038 741.567C757.952 743.17 758.384 751.394 752.668 753.606L751.304 754.134C746.169 756.122 745.831 763.26 750.758 765.723L753.924 767.304C757.616 769.15 758.591 773.973 755.903 777.106L742.16 793.139" stroke="#7CB8FE"/>
<path d="M734.011 801.907L737.152 786.663L748.785 797.004L734.011 801.907Z" fill="#7CB8FE"/>
<path d="M770.709 665.224L790.805 675.897C795.825 678.566 795.072 685.98 789.619 687.585L768.2 693.884C762.421 695.581 762.04 703.62 767.634 705.857L780.819 711.13C786.451 713.381 786.013 721.492 780.174 723.126L767.513 726.672C761.309 728.408 761.347 737.218 767.566 738.901L777.414 741.567C783.329 743.17 783.761 751.394 778.045 753.606L776.681 754.134C771.546 756.122 771.208 763.26 776.135 765.723L779.301 767.304C782.993 769.15 783.968 773.973 781.28 777.106L767.536 793.139" stroke="#7CB8FE"/>
<path d="M759.388 801.907L762.529 786.663L774.162 797.004L759.388 801.907Z" fill="#7CB8FE"/>
<path d="M796.086 665.224L816.182 675.897C821.202 678.566 820.449 685.98 814.996 687.585L793.577 693.884C787.798 695.581 787.417 703.62 793.011 705.857L806.196 711.13C811.828 713.381 811.39 721.492 805.551 723.126L792.89 726.672C786.686 728.408 786.724 737.218 792.943 738.901L802.791 741.567C808.706 743.17 809.138 751.394 803.422 753.606L802.058 754.134C796.923 756.122 796.585 763.26 801.512 765.723L804.678 767.304C808.37 769.15 809.345 773.973 806.657 777.106L792.913 793.139" stroke="#7CB8FE"/>
<path d="M784.765 801.907L787.906 786.663L799.539 797.004L784.765 801.907Z" fill="#7CB8FE"/>
<path d="M821.462 665.224L841.559 675.897C846.579 678.566 845.826 685.98 840.372 687.585L818.954 693.884C813.175 695.581 812.794 703.62 818.388 705.857L831.573 711.13C837.205 713.381 836.767 721.492 830.928 723.126L818.267 726.672C812.062 728.408 812.1 737.218 818.32 738.901L828.168 741.567C834.083 743.17 834.515 751.394 828.798 753.606L827.434 754.134C822.3 756.122 821.962 763.26 826.889 765.723L830.055 767.304C833.747 769.15 834.722 773.973 832.034 777.106L818.29 793.139" stroke="#7CB8FE"/>
<path d="M810.142 801.907L813.283 786.663L824.916 797.004L810.142 801.907Z" fill="#7CB8FE"/>
<path d="M523.034 904.249C523.034 896.599 526.232 892.413 532.018 892.413C536.776 892.413 539.44 895.077 540.088 900.062L536.814 900.824C536.129 897.056 534.796 895.419 531.942 895.419C527.907 895.419 526.536 898.768 526.536 904.249C526.536 910.033 527.945 913.23 531.865 913.23C535.025 913.23 536.281 911.518 537.004 907.674L540.278 908.397C539.555 913.496 536.928 916.161 531.865 916.161C525.965 916.161 523.034 911.936 523.034 904.249ZM554.094 916.122C548.802 916.122 546.062 913.078 546.062 907.217V892.87H549.564V906.951C549.564 910.68 550.515 913.23 554.094 913.23C557.557 913.23 558.585 911.061 558.585 907.141V892.87H562.087V907.217C562.087 913.078 559.308 916.122 554.094 916.122ZM568.632 915.704V892.87H576.017C582.298 892.87 585.115 896.447 585.115 904.134C585.115 911.746 581.575 915.704 575.979 915.704H568.632ZM572.134 912.811H575.751C580.052 912.811 581.613 909.615 581.613 904.134C581.613 897.931 579.938 895.762 575.598 895.762H572.134V912.811ZM588.845 915.704L595.887 892.87H601.33L608.373 915.704H604.642L602.891 909.5H594.212L592.461 915.704H588.845ZM594.974 906.722H602.13L601.292 903.83C600.569 901.242 599.846 898.198 599.351 895.762H597.828C597.257 898.236 596.496 901.204 595.773 903.83L594.974 906.722ZM636.613 915.704V890.206H639.886V905.314H643.35L648.489 897.931H652.029V898.692L645.749 906.646L652.676 914.943V915.704H649.174L643.503 908.169H639.886V915.704H636.613ZM665.807 916.161C660.402 916.161 657.166 912.888 657.166 906.951C657.166 901.014 660.592 897.474 665.807 897.474C670.908 897.474 673.61 900.633 673.61 905.543C673.61 906.075 673.572 906.913 673.458 907.636H660.478C660.668 911.441 662.381 913.535 665.807 913.535C668.7 913.535 670.032 911.974 670.565 910.147L673.382 910.871C672.582 913.953 670.222 916.161 665.807 916.161ZM660.516 905.428H670.527C670.451 901.851 668.89 899.91 665.731 899.91C662.647 899.91 660.858 901.699 660.516 905.428ZM681.109 915.704V897.931H684.116V903.183L684.459 903.221C685.829 899.377 688.418 897.551 691.577 897.551C693.29 897.551 694.584 897.931 696.373 898.806L695.612 901.813C694.051 900.976 692.453 900.519 691.006 900.519C687.009 900.519 684.383 902.993 684.383 907.407V915.704H681.109ZM702.652 915.704V897.931H705.773V902.346H706.344C707.448 899.644 709.694 897.474 712.511 897.474C715.594 897.474 717.421 899.644 717.421 903.602V915.704H714.11V904.363C714.11 901.889 713.272 900.481 711.026 900.481C708.057 900.481 705.964 902.841 705.964 905.923V915.704H702.652ZM732.607 916.161C727.202 916.161 723.966 912.888 723.966 906.951C723.966 901.014 727.392 897.474 732.607 897.474C737.708 897.474 740.411 900.633 740.411 905.543C740.411 906.075 740.373 906.913 740.258 907.636H727.278C727.469 911.441 729.181 913.535 732.607 913.535C735.5 913.535 736.833 911.974 737.365 910.147L740.182 910.871C739.383 913.953 737.023 916.161 732.607 916.161ZM727.316 905.428H737.327C737.251 901.851 735.691 899.91 732.531 899.91C729.448 899.91 727.659 901.699 727.316 905.428ZM746.387 915.704V913.078H753.125V892.831H746.73V890.206H756.398V913.078H762.565V915.704H746.387ZM790.919 904.211C790.919 900.1 793.85 897.931 798.761 897.931H807.706V900.329H805.727C804.737 900.329 803.29 900.215 801.463 899.986L801.425 900.557C803.938 901.09 806.145 902.232 806.145 904.743C806.145 908.054 803.481 910.224 798.494 910.224C797.39 910.224 796.439 910.109 795.563 909.919L794.992 910.756C794.65 911.289 794.459 911.67 794.459 912.165C794.459 912.964 795.106 913.268 796.439 913.268H802.034C805.727 913.268 807.82 914.829 807.82 917.607C807.82 921.26 805.574 922.897 798.494 922.897C791.909 922.897 789.891 921.374 789.891 918.977C789.891 917.378 791.49 916.313 793.698 915.704V915.285C792.556 914.943 791.833 914.182 791.833 913.04C791.833 912.05 792.48 911.327 793.508 910.642L794.878 909.691C792.29 908.815 790.919 906.875 790.919 904.211ZM793.964 904.096C793.964 906.38 795.221 907.75 798.532 907.75C801.844 907.75 803.252 906.418 803.252 904.096C803.252 901.889 801.654 900.443 798.494 900.443C795.297 900.443 793.964 901.927 793.964 904.096ZM795.982 915.514C793.698 915.514 792.594 916.807 792.594 917.987C792.594 919.7 793.964 920.461 798.799 920.461C803.861 920.461 805.079 919.51 805.079 917.797C805.079 916.427 804.014 915.514 801.806 915.514H795.982ZM814.708 915.704V897.931H817.715V903.183L818.058 903.221C819.428 899.377 822.016 897.551 825.176 897.551C826.889 897.551 828.183 897.931 829.972 898.806L829.211 901.813C827.65 900.976 826.051 900.519 824.605 900.519C820.608 900.519 817.982 902.993 817.982 907.407V915.704H814.708ZM835.454 915.704V913.078H842.305V900.557H835.796V897.931H845.617V913.078H851.631V915.704H835.454ZM841.201 893.783V890.662H845.769V893.783H841.201ZM856.958 906.913C856.958 900.976 859.661 897.474 863.62 897.474C866.627 897.474 868.53 899.53 869.52 902.117H869.977V890.206H873.288V915.704H869.977V911.403H869.52C868.454 914.029 866.246 916.161 863.468 916.161C859.737 916.161 856.958 912.773 856.958 906.913ZM869.977 908.169V905.695C869.977 902.65 867.921 900.481 865.142 900.481C862.059 900.481 860.194 902.688 860.194 906.875C860.194 911.023 862.021 913.306 865.142 913.306C867.883 913.306 869.977 911.099 869.977 908.169Z" fill="#7CB8FE"/>
<path d="M1338.52 947.418H59.098V1284.59H1338.52V947.418Z" fill="#7CB8FE" fill-opacity="0.05"/>
<path d="M1337.46 948.475H60.1554V1283.53H1337.46V948.475Z" stroke="#7CB8FE" stroke-opacity="0.5" stroke-dasharray="8 8"/>
<path d="M431.293 972.79H84.475V1166.18H431.293V972.79Z" fill="#7CB8FE" fill-opacity="0.1"/>
<path d="M126.77 998.161L146.866 1008.84C151.887 1011.5 151.134 1018.92 145.68 1020.52L124.261 1026.82C118.482 1028.52 118.102 1036.56 123.695 1038.8L136.88 1044.07C142.511 1046.32 142.075 1054.43 136.235 1056.06L123.575 1059.61C117.37 1061.35 117.407 1070.15 123.627 1071.84L133.475 1074.51C139.39 1076.11 139.822 1084.33 134.107 1086.54L132.743 1087.07C127.606 1089.06 127.269 1096.2 132.195 1098.66L135.363 1100.24C139.054 1102.09 140.028 1106.91 137.342 1110.04L123.598 1126.08" stroke="#7CB8FE"/>
<path d="M115.45 1134.84L118.59 1119.6L130.224 1129.94L115.45 1134.84Z" fill="#7CB8FE"/>
<path d="M152.147 998.161L172.243 1008.84C177.264 1011.5 176.511 1018.92 171.057 1020.52L149.638 1026.82C143.859 1028.52 143.479 1036.56 149.072 1038.8L162.257 1044.07C167.888 1046.32 167.452 1054.43 161.612 1056.06L148.952 1059.61C142.747 1061.35 142.784 1070.15 149.004 1071.84L158.852 1074.51C164.767 1076.11 165.199 1084.33 159.484 1086.54L158.12 1087.07C152.983 1089.06 152.646 1096.2 157.572 1098.66L160.739 1100.24C164.431 1102.09 165.405 1106.91 162.719 1110.04L148.975 1126.08" stroke="#7CB8FE"/>
<path d="M140.826 1134.84L143.966 1119.6L155.601 1129.94L140.826 1134.84Z" fill="#7CB8FE"/>
<path d="M177.524 998.161L197.62 1008.84C202.641 1011.5 201.888 1018.92 196.434 1020.52L175.015 1026.82C169.236 1028.52 168.856 1036.56 174.449 1038.8L187.634 1044.07C193.265 1046.32 192.829 1054.43 186.989 1056.06L174.329 1059.61C168.124 1061.35 168.161 1070.15 174.381 1071.84L184.229 1074.51C190.144 1076.11 190.576 1084.33 184.861 1086.54L183.496 1087.07C178.36 1089.06 178.023 1096.2 182.949 1098.66L186.116 1100.24C189.808 1102.09 190.782 1106.91 188.096 1110.04L174.351 1126.08" stroke="#7CB8FE"/>
<path d="M166.203 1134.84L169.343 1119.6L180.978 1129.94L166.203 1134.84Z" fill="#7CB8FE"/>
<path d="M202.9 998.161L222.997 1008.84C228.017 1011.5 227.264 1018.92 221.81 1020.52L200.392 1026.82C194.613 1028.52 194.233 1036.56 199.825 1038.8L213.011 1044.07C218.643 1046.32 218.205 1054.43 212.366 1056.06L199.706 1059.61C193.5 1061.35 193.538 1070.15 199.758 1071.84L209.606 1074.51C215.521 1076.11 215.953 1084.33 210.238 1086.54L208.873 1087.07C203.737 1089.06 203.4 1096.2 208.326 1098.66L211.493 1100.24C215.185 1102.09 216.16 1106.91 213.473 1110.04L199.728 1126.08" stroke="#7CB8FE"/>
<path d="M191.58 1134.84L194.72 1119.6L206.355 1129.94L191.58 1134.84Z" fill="#7CB8FE"/>
<path d="M228.277 998.161L248.374 1008.84C253.394 1011.5 252.641 1018.92 247.187 1020.52L225.769 1026.82C219.99 1028.52 219.609 1036.56 225.203 1038.8L238.388 1044.07C244.02 1046.32 243.582 1054.43 237.743 1056.06L225.082 1059.61C218.877 1061.35 218.915 1070.15 225.135 1071.84L234.983 1074.51C240.898 1076.11 241.33 1084.33 235.613 1086.54L234.249 1087.07C229.115 1089.06 228.776 1096.2 233.704 1098.66L236.87 1100.24C240.562 1102.09 241.537 1106.91 238.849 1110.04L225.105 1126.08" stroke="#7CB8FE"/>
<path d="M216.957 1134.84L220.098 1119.6L231.731 1129.94L216.957 1134.84Z" fill="#7CB8FE"/>
<path d="M253.654 998.161L273.751 1008.84C278.771 1011.5 278.018 1018.92 272.564 1020.52L251.146 1026.82C245.367 1028.52 244.986 1036.56 250.579 1038.8L263.765 1044.07C269.396 1046.32 268.959 1054.43 263.12 1056.06L250.459 1059.61C244.254 1061.35 244.292 1070.15 250.512 1071.84L260.36 1074.51C266.275 1076.11 266.706 1084.33 260.99 1086.54L259.626 1087.07C254.492 1089.06 254.153 1096.2 259.081 1098.66L262.246 1100.24C265.939 1102.09 266.914 1106.91 264.226 1110.04L250.482 1126.08" stroke="#7CB8FE"/>
<path d="M242.334 1134.84L245.474 1119.6L257.108 1129.94L242.334 1134.84Z" fill="#7CB8FE"/>
<path d="M279.031 998.161L299.128 1008.84C304.148 1011.5 303.395 1018.92 297.941 1020.52L276.523 1026.82C270.743 1028.52 270.363 1036.56 275.956 1038.8L289.142 1044.07C294.773 1046.32 294.336 1054.43 288.497 1056.06L275.836 1059.61C269.631 1061.35 269.669 1070.15 275.889 1071.84L285.737 1074.51C291.652 1076.11 292.083 1084.33 286.367 1086.54L285.003 1087.07C279.869 1089.06 279.53 1096.2 284.458 1098.66L287.623 1100.24C291.316 1102.09 292.291 1106.91 289.603 1110.04L275.859 1126.08" stroke="#7CB8FE"/>
<path d="M267.711 1134.84L270.851 1119.6L282.485 1129.94L267.711 1134.84Z" fill="#7CB8FE"/>
<path d="M304.408 998.161L324.505 1008.84C329.525 1011.5 328.772 1018.92 323.318 1020.52L301.9 1026.82C296.12 1028.52 295.74 1036.56 301.333 1038.8L314.519 1044.07C320.15 1046.32 319.712 1054.43 313.874 1056.06L301.213 1059.61C295.008 1061.35 295.046 1070.15 301.266 1071.84L311.114 1074.51C317.029 1076.11 317.46 1084.33 311.744 1086.54L310.38 1087.07C305.246 1089.06 304.907 1096.2 309.835 1098.66L313 1100.24C316.693 1102.09 317.668 1106.91 314.98 1110.04L301.236 1126.08" stroke="#7CB8FE"/>
<path d="M293.088 1134.84L296.228 1119.6L307.861 1129.94L293.088 1134.84Z" fill="#7CB8FE"/>
<path d="M329.785 998.161L349.881 1008.84C354.902 1011.5 354.149 1018.92 348.695 1020.52L327.277 1026.82C321.497 1028.52 321.117 1036.56 326.71 1038.8L339.896 1044.07C345.527 1046.32 345.089 1054.43 339.251 1056.06L326.59 1059.61C320.385 1061.35 320.423 1070.15 326.642 1071.84L336.491 1074.51C342.406 1076.11 342.837 1084.33 337.121 1086.54L335.757 1087.07C330.622 1089.06 330.284 1096.2 335.211 1098.66L338.377 1100.24C342.069 1102.09 343.044 1106.91 340.357 1110.04L326.613 1126.08" stroke="#7CB8FE"/>
<path d="M318.465 1134.84L321.605 1119.6L333.238 1129.94L318.465 1134.84Z" fill="#7CB8FE"/>
<path d="M355.162 998.161L375.258 1008.84C380.279 1011.5 379.526 1018.92 374.072 1020.52L352.654 1026.82C346.874 1028.52 346.494 1036.56 352.087 1038.8L365.272 1044.07C370.904 1046.32 370.466 1054.43 364.627 1056.06L351.967 1059.61C345.762 1061.35 345.8 1070.15 352.019 1071.84L361.868 1074.51C367.783 1076.11 368.214 1084.33 362.498 1086.54L361.134 1087.07C355.999 1089.06 355.661 1096.2 360.588 1098.66L363.754 1100.24C367.446 1102.09 368.421 1106.91 365.733 1110.04L351.99 1126.08" stroke="#7CB8FE"/>
<path d="M343.842 1134.84L346.982 1119.6L358.615 1129.94L343.842 1134.84Z" fill="#7CB8FE"/>
<path d="M380.539 998.161L400.635 1008.84C405.656 1011.5 404.903 1018.92 399.449 1020.52L378.031 1026.82C372.251 1028.52 371.87 1036.56 377.464 1038.8L390.649 1044.07C396.281 1046.32 395.843 1054.43 390.004 1056.06L377.343 1059.61C371.139 1061.35 371.177 1070.15 377.396 1071.84L387.245 1074.51C393.16 1076.11 393.591 1084.33 387.875 1086.54L386.511 1087.07C381.376 1089.06 381.038 1096.2 385.965 1098.66L389.131 1100.24C392.823 1102.09 393.798 1106.91 391.11 1110.04L377.367 1126.08" stroke="#7CB8FE"/>
<path d="M369.219 1134.84L372.359 1119.6L383.992 1129.94L369.219 1134.84Z" fill="#7CB8FE"/>
<path d="M826.749 972.79H479.932V1166.18H826.749V972.79Z" fill="#7CB8FE" fill-opacity="0.1"/>
<path d="M522.226 998.161L542.323 1008.84C547.343 1011.5 546.59 1018.92 541.136 1020.52L519.718 1026.82C513.939 1028.52 513.558 1036.56 519.152 1038.8L532.337 1044.07C537.969 1046.32 537.531 1054.43 531.692 1056.06L519.031 1059.61C512.826 1061.35 512.865 1070.15 519.084 1071.84L528.932 1074.51C534.847 1076.11 535.279 1084.33 529.563 1086.54L528.199 1087.07C523.064 1089.06 522.726 1096.2 527.653 1098.66L530.819 1100.24C534.511 1102.09 535.486 1106.91 532.798 1110.04L519.054 1126.08" stroke="#7CB8FE"/>
<path d="M510.906 1134.84L514.047 1119.6L525.68 1129.94L510.906 1134.84Z" fill="#7CB8FE"/>
<path d="M547.603 998.161L567.7 1008.84C572.72 1011.5 571.967 1018.92 566.513 1020.52L545.095 1026.82C539.316 1028.52 538.935 1036.56 544.528 1038.8L557.714 1044.07C563.346 1046.32 562.908 1054.43 557.069 1056.06L544.408 1059.61C538.203 1061.35 538.241 1070.15 544.461 1071.84L554.309 1074.51C560.224 1076.11 560.656 1084.33 554.939 1086.54L553.575 1087.07C548.441 1089.06 548.102 1096.2 553.03 1098.66L556.196 1100.24C559.888 1102.09 560.863 1106.91 558.175 1110.04L544.431 1126.08" stroke="#7CB8FE"/>
<path d="M536.283 1134.84L539.424 1119.6L551.057 1129.94L536.283 1134.84Z" fill="#7CB8FE"/>
<path d="M572.98 998.161L593.077 1008.84C598.097 1011.5 597.344 1018.92 591.89 1020.52L570.472 1026.82C564.693 1028.52 564.312 1036.56 569.905 1038.8L583.091 1044.07C588.722 1046.32 588.285 1054.43 582.446 1056.06L569.785 1059.61C563.58 1061.35 563.618 1070.15 569.838 1071.84L579.686 1074.51C585.601 1076.11 586.032 1084.33 580.316 1086.54L578.952 1087.07C573.818 1089.06 573.479 1096.2 578.407 1098.66L581.572 1100.24C585.265 1102.09 586.24 1106.91 583.552 1110.04L569.808 1126.08" stroke="#7CB8FE"/>
<path d="M561.66 1134.84L564.8 1119.6L576.434 1129.94L561.66 1134.84Z" fill="#7CB8FE"/>
<path d="M598.357 998.161L618.454 1008.84C623.474 1011.5 622.721 1018.92 617.267 1020.52L595.849 1026.82C590.07 1028.52 589.689 1036.56 595.282 1038.8L608.468 1044.07C614.099 1046.32 613.662 1054.43 607.823 1056.06L595.162 1059.61C588.957 1061.35 588.995 1070.15 595.215 1071.84L605.063 1074.51C610.978 1076.11 611.409 1084.33 605.693 1086.54L604.329 1087.07C599.195 1089.06 598.856 1096.2 603.784 1098.66L606.949 1100.24C610.642 1102.09 611.617 1106.91 608.929 1110.04L595.185 1126.08" stroke="#7CB8FE"/>
<path d="M587.037 1134.84L590.177 1119.6L601.81 1129.94L587.037 1134.84Z" fill="#7CB8FE"/>
<path d="M623.734 998.161L643.83 1008.84C648.851 1011.5 648.098 1018.92 642.644 1020.52L621.226 1026.82C615.446 1028.52 615.066 1036.56 620.659 1038.8L633.845 1044.07C639.476 1046.32 639.039 1054.43 633.2 1056.06L620.539 1059.61C614.334 1061.35 614.372 1070.15 620.592 1071.84L630.44 1074.51C636.355 1076.11 636.786 1084.33 631.07 1086.54L629.706 1087.07C624.572 1089.06 624.233 1096.2 629.161 1098.66L632.326 1100.24C636.019 1102.09 636.994 1106.91 634.306 1110.04L620.562 1126.08" stroke="#7CB8FE"/>
<path d="M612.414 1134.84L615.554 1119.6L627.187 1129.94L612.414 1134.84Z" fill="#7CB8FE"/>
<path d="M649.111 998.161L669.207 1008.84C674.228 1011.5 673.475 1018.92 668.021 1020.52L646.603 1026.82C640.823 1028.52 640.443 1036.56 646.036 1038.8L659.222 1044.07C664.853 1046.32 664.415 1054.43 658.577 1056.06L645.916 1059.61C639.711 1061.35 639.749 1070.15 645.968 1071.84L655.817 1074.51C661.732 1076.11 662.163 1084.33 656.447 1086.54L655.083 1087.07C649.948 1089.06 649.61 1096.2 654.537 1098.66L657.703 1100.24C661.395 1102.09 662.37 1106.91 659.683 1110.04L645.939 1126.08" stroke="#7CB8FE"/>
<path d="M637.791 1134.84L640.931 1119.6L652.564 1129.94L637.791 1134.84Z" fill="#7CB8FE"/>
<path d="M674.488 998.161L694.584 1008.84C699.605 1011.5 698.852 1018.92 693.398 1020.52L671.98 1026.82C666.2 1028.52 665.82 1036.56 671.413 1038.8L684.598 1044.07C690.23 1046.32 689.792 1054.43 683.953 1056.06L671.293 1059.61C665.088 1061.35 665.126 1070.15 671.345 1071.84L681.194 1074.51C687.109 1076.11 687.54 1084.33 681.824 1086.54L680.46 1087.07C675.325 1089.06 674.987 1096.2 679.914 1098.66L683.08 1100.24C686.772 1102.09 687.747 1106.91 685.059 1110.04L671.316 1126.08" stroke="#7CB8FE"/>
<path d="M663.168 1134.84L666.308 1119.6L677.941 1129.94L663.168 1134.84Z" fill="#7CB8FE"/>
<path d="M699.865 998.161L719.961 1008.84C724.982 1011.5 724.229 1018.92 718.775 1020.52L697.357 1026.82C691.577 1028.52 691.196 1036.56 696.79 1038.8L709.975 1044.07C715.607 1046.32 715.169 1054.43 709.33 1056.06L696.669 1059.61C690.465 1061.35 690.503 1070.15 696.722 1071.84L706.571 1074.51C712.486 1076.11 712.917 1084.33 707.201 1086.54L705.837 1087.07C700.702 1089.06 700.364 1096.2 705.291 1098.66L708.457 1100.24C712.149 1102.09 713.124 1106.91 710.436 1110.04L696.693 1126.08" stroke="#7CB8FE"/>
<path d="M688.545 1134.84L691.685 1119.6L703.318 1129.94L688.545 1134.84Z" fill="#7CB8FE"/>
<path d="M725.242 998.161L745.338 1008.84C750.358 1011.5 749.606 1018.92 744.152 1020.52L722.734 1026.82C716.954 1028.52 716.573 1036.56 722.167 1038.8L735.352 1044.07C740.984 1046.32 740.546 1054.43 734.707 1056.06L722.046 1059.61C715.842 1061.35 715.88 1070.15 722.099 1071.84L731.947 1074.51C737.862 1076.11 738.294 1084.33 732.578 1086.54L731.214 1087.07C726.079 1089.06 725.741 1096.2 730.668 1098.66L733.834 1100.24C737.526 1102.09 738.501 1106.91 735.813 1110.04L722.07 1126.08" stroke="#7CB8FE"/>
<path d="M713.921 1134.84L717.062 1119.6L728.695 1129.94L713.921 1134.84Z" fill="#7CB8FE"/>
<path d="M750.619 998.161L770.715 1008.84C775.735 1011.5 774.983 1018.92 769.529 1020.52L748.111 1026.82C742.331 1028.52 741.95 1036.56 747.544 1038.8L760.729 1044.07C766.361 1046.32 765.923 1054.43 760.084 1056.06L747.423 1059.61C741.219 1061.35 741.257 1070.15 747.476 1071.84L757.324 1074.51C763.239 1076.11 763.671 1084.33 757.955 1086.54L756.591 1087.07C751.456 1089.06 751.118 1096.2 756.045 1098.66L759.211 1100.24C762.903 1102.09 763.878 1106.91 761.19 1110.04L747.446 1126.08" stroke="#7CB8FE"/>
<path d="M739.298 1134.84L742.439 1119.6L754.072 1129.94L739.298 1134.84Z" fill="#7CB8FE"/>
<path d="M775.995 998.161L796.092 1008.84C801.112 1011.5 800.359 1018.92 794.905 1020.52L773.487 1026.82C767.708 1028.52 767.327 1036.56 772.921 1038.8L786.106 1044.07C791.738 1046.32 791.3 1054.43 785.461 1056.06L772.8 1059.61C766.595 1061.35 766.633 1070.15 772.853 1071.84L782.701 1074.51C788.616 1076.11 789.048 1084.33 783.331 1086.54L781.967 1087.07C776.833 1089.06 776.495 1096.2 781.422 1098.66L784.588 1100.24C788.28 1102.09 789.255 1106.91 786.567 1110.04L772.823 1126.08" stroke="#7CB8FE"/>
<path d="M764.675 1134.84L767.816 1119.6L779.449 1129.94L764.675 1134.84Z" fill="#7CB8FE"/>
<path d="M883.847 1065.26H875.388V1073.72H883.847V1065.26Z" fill="#7CB8FE"/>
<path d="M900.765 1065.26H892.306V1073.72H900.765V1065.26Z" fill="#7CB8FE"/>
<path d="M917.683 1065.26H909.224V1073.72H917.683V1065.26Z" fill="#7CB8FE"/>
<path d="M1313.14 972.79H966.322V1166.18H1313.14V972.79Z" fill="#7CB8FE" fill-opacity="0.1"/>
<path d="M1008.62 998.161L1028.71 1008.84C1033.73 1011.5 1032.98 1018.92 1027.53 1020.52L1006.11 1026.82C1000.33 1028.52 999.949 1036.56 1005.54 1038.8L1018.73 1044.07C1024.36 1046.32 1023.92 1054.43 1018.08 1056.06L1005.42 1059.61C999.217 1061.35 999.255 1070.15 1005.47 1071.84L1015.32 1074.51C1021.24 1076.11 1021.67 1084.33 1015.95 1086.54L1014.59 1087.07C1009.45 1089.06 1009.12 1096.2 1014.04 1098.66L1017.21 1100.24C1020.9 1102.09 1021.88 1106.91 1019.19 1110.04L1005.44 1126.08" stroke="#7CB8FE"/>
<path d="M997.297 1134.84L1000.44 1119.6L1012.07 1129.94L997.297 1134.84Z" fill="#7CB8FE"/>
<path d="M1033.99 998.161L1054.09 1008.84C1059.11 1011.5 1058.36 1018.92 1052.9 1020.52L1031.49 1026.82C1025.71 1028.52 1025.33 1036.56 1030.92 1038.8L1044.1 1044.07C1049.74 1046.32 1049.3 1054.43 1043.46 1056.06L1030.8 1059.61C1024.59 1061.35 1024.63 1070.15 1030.85 1071.84L1040.7 1074.51C1046.61 1076.11 1047.05 1084.33 1041.33 1086.54L1039.97 1087.07C1034.83 1089.06 1034.49 1096.2 1039.42 1098.66L1042.59 1100.24C1046.28 1102.09 1047.25 1106.91 1044.57 1110.04L1030.82 1126.08" stroke="#7CB8FE"/>
<path d="M1022.67 1134.84L1025.81 1119.6L1037.45 1129.94L1022.67 1134.84Z" fill="#7CB8FE"/>
<path d="M1059.37 998.161L1079.47 1008.84C1084.49 1011.5 1083.73 1018.92 1078.28 1020.52L1056.86 1026.82C1051.08 1028.52 1050.7 1036.56 1056.3 1038.8L1069.48 1044.07C1075.11 1046.32 1074.68 1054.43 1068.84 1056.06L1056.18 1059.61C1049.97 1061.35 1050.01 1070.15 1056.23 1071.84L1066.08 1074.51C1071.99 1076.11 1072.42 1084.33 1066.71 1086.54L1065.34 1087.07C1060.21 1089.06 1059.87 1096.2 1064.8 1098.66L1067.96 1100.24C1071.66 1102.09 1072.63 1106.91 1069.94 1110.04L1056.2 1126.08" stroke="#7CB8FE"/>
<path d="M1048.05 1134.84L1051.19 1119.6L1062.82 1129.94L1048.05 1134.84Z" fill="#7CB8FE"/>
<path d="M1084.75 998.161L1104.84 1008.84C1109.86 1011.5 1109.11 1018.92 1103.66 1020.52L1082.24 1026.82C1076.46 1028.52 1076.08 1036.56 1081.67 1038.8L1094.86 1044.07C1100.49 1046.32 1100.05 1054.43 1094.21 1056.06L1081.55 1059.61C1075.35 1061.35 1075.39 1070.15 1081.61 1071.84L1091.45 1074.51C1097.37 1076.11 1097.8 1084.33 1092.08 1086.54L1090.72 1087.07C1085.59 1089.06 1085.25 1096.2 1090.17 1098.66L1093.34 1100.24C1097.03 1102.09 1098.01 1106.91 1095.32 1110.04L1081.58 1126.08" stroke="#7CB8FE"/>
<path d="M1073.43 1134.84L1076.57 1119.6L1088.2 1129.94L1073.43 1134.84Z" fill="#7CB8FE"/>
<path d="M1110.12 998.161L1130.22 1008.84C1135.24 1011.5 1134.49 1018.92 1129.03 1020.52L1107.62 1026.82C1101.84 1028.52 1101.46 1036.56 1107.05 1038.8L1120.24 1044.07C1125.87 1046.32 1125.43 1054.43 1119.59 1056.06L1106.93 1059.61C1100.72 1061.35 1100.76 1070.15 1106.98 1071.84L1116.83 1074.51C1122.75 1076.11 1123.18 1084.33 1117.46 1086.54L1116.1 1087.07C1110.96 1089.06 1110.62 1096.2 1115.55 1098.66L1118.72 1100.24C1122.41 1102.09 1123.38 1106.91 1120.7 1110.04L1106.95 1126.08" stroke="#7CB8FE"/>
<path d="M1098.8 1134.84L1101.94 1119.6L1113.58 1129.94L1098.8 1134.84Z" fill="#7CB8FE"/>
<path d="M1135.5 998.161L1155.6 1008.84C1160.62 1011.5 1159.87 1018.92 1154.41 1020.52L1132.99 1026.82C1127.21 1028.52 1126.83 1036.56 1132.43 1038.8L1145.61 1044.07C1151.24 1046.32 1150.81 1054.43 1144.97 1056.06L1132.31 1059.61C1126.1 1061.35 1126.14 1070.15 1132.36 1071.84L1142.21 1074.51C1148.12 1076.11 1148.55 1084.33 1142.84 1086.54L1141.47 1087.07C1136.34 1089.06 1136 1096.2 1140.93 1098.66L1144.09 1100.24C1147.79 1102.09 1148.76 1106.91 1146.07 1110.04L1132.33 1126.08" stroke="#7CB8FE"/>
<path d="M1124.18 1134.84L1127.32 1119.6L1138.95 1129.94L1124.18 1134.84Z" fill="#7CB8FE"/>
<path d="M1160.88 998.161L1180.97 1008.84C1186 1011.5 1185.24 1018.92 1179.79 1020.52L1158.37 1026.82C1152.59 1028.52 1152.21 1036.56 1157.8 1038.8L1170.99 1044.07C1176.62 1046.32 1176.18 1054.43 1170.34 1056.06L1157.68 1059.61C1151.48 1061.35 1151.52 1070.15 1157.74 1071.84L1167.58 1074.51C1173.5 1076.11 1173.93 1084.33 1168.21 1086.54L1166.85 1087.07C1161.72 1089.06 1161.38 1096.2 1166.3 1098.66L1169.47 1100.24C1173.16 1102.09 1174.14 1106.91 1171.45 1110.04L1157.71 1126.08" stroke="#7CB8FE"/>
<path d="M1149.56 1134.84L1152.7 1119.6L1164.33 1129.94L1149.56 1134.84Z" fill="#7CB8FE"/>
<path d="M1186.26 998.161L1206.35 1008.84C1211.37 1011.5 1210.62 1018.92 1205.17 1020.52L1183.75 1026.82C1177.97 1028.52 1177.59 1036.56 1183.18 1038.8L1196.37 1044.07C1202 1046.32 1201.56 1054.43 1195.72 1056.06L1183.06 1059.61C1176.86 1061.35 1176.89 1070.15 1183.11 1071.84L1192.96 1074.51C1198.88 1076.11 1199.31 1084.33 1193.59 1086.54L1192.23 1087.07C1187.09 1089.06 1186.75 1096.2 1191.68 1098.66L1194.85 1100.24C1198.54 1102.09 1199.51 1106.91 1196.83 1110.04L1183.08 1126.08" stroke="#7CB8FE"/>
<path d="M1174.94 1134.84L1178.08 1119.6L1189.71 1129.94L1174.94 1134.84Z" fill="#7CB8FE"/>
<path d="M1211.63 998.161L1231.73 1008.84C1236.75 1011.5 1236 1018.92 1230.54 1020.52L1209.12 1026.82C1203.34 1028.52 1202.96 1036.56 1208.56 1038.8L1221.74 1044.07C1227.37 1046.32 1226.94 1054.43 1221.1 1056.06L1208.44 1059.61C1202.23 1061.35 1202.27 1070.15 1208.49 1071.84L1218.34 1074.51C1224.25 1076.11 1224.68 1084.33 1218.97 1086.54L1217.6 1087.07C1212.47 1089.06 1212.13 1096.2 1217.06 1098.66L1220.22 1100.24C1223.92 1102.09 1224.89 1106.91 1222.2 1110.04L1208.46 1126.08" stroke="#7CB8FE"/>
<path d="M1200.31 1134.84L1203.45 1119.6L1215.09 1129.94L1200.31 1134.84Z" fill="#7CB8FE"/>
<path d="M1237.01 998.161L1257.11 1008.84C1262.13 1011.5 1261.37 1018.92 1255.92 1020.52L1234.5 1026.82C1228.72 1028.52 1228.34 1036.56 1233.93 1038.8L1247.12 1044.07C1252.75 1046.32 1252.31 1054.43 1246.47 1056.06L1233.81 1059.61C1227.61 1061.35 1227.65 1070.15 1233.87 1071.84L1243.71 1074.51C1249.63 1076.11 1250.06 1084.33 1244.35 1086.54L1242.98 1087.07C1237.85 1089.06 1237.51 1096.2 1242.44 1098.66L1245.6 1100.24C1249.29 1102.09 1250.27 1106.91 1247.58 1110.04L1233.84 1126.08" stroke="#7CB8FE"/>
<path d="M1225.69 1134.84L1228.83 1119.6L1240.46 1129.94L1225.69 1134.84Z" fill="#7CB8FE"/>
<path d="M1262.39 998.161L1282.48 1008.84C1287.5 1011.5 1286.75 1018.92 1281.3 1020.52L1259.88 1026.82C1254.1 1028.52 1253.72 1036.56 1259.31 1038.8L1272.5 1044.07C1278.13 1046.32 1277.69 1054.43 1271.85 1056.06L1259.19 1059.61C1252.99 1061.35 1253.02 1070.15 1259.24 1071.84L1269.09 1074.51C1275.01 1076.11 1275.44 1084.33 1269.72 1086.54L1268.36 1087.07C1263.22 1089.06 1262.89 1096.2 1267.81 1098.66L1270.98 1100.24C1274.67 1102.09 1275.65 1106.91 1272.96 1110.04L1259.21 1126.08" stroke="#7CB8FE"/>
<path d="M1251.07 1134.84L1254.21 1119.6L1265.84 1129.94L1251.07 1134.84Z" fill="#7CB8FE"/>
<path d="M84.475 1191.56H1313.14V1259.21H84.475V1191.56Z" fill="#7CB8FE" fill-opacity="0.1"/>
<mask id="mask1_2_166" style="mask-type:luminance" maskUnits="userSpaceOnUse" x="84" y="1191" width="1230" height="69">
<path d="M84.475 1191.56H1313.14V1259.21H84.475V1191.56Z" fill="white"/>
</mask>
<g mask="url(#mask1_2_166)">
<path d="M84.475 1191.56V1189.77H82.6906V1191.56H84.475ZM1313.14 1191.56H1314.92V1189.77H1313.14V1191.56ZM1313.14 1259.21V1260.99H1314.92V1259.21H1313.14ZM84.475 1259.21H82.6906V1260.99H84.475V1259.21ZM84.475 1193.34H1313.14V1189.77H84.475V1193.34ZM1311.36 1191.56V1259.21H1314.92V1191.56H1311.36ZM1313.14 1257.44H84.475V1260.99H1313.14V1257.44ZM86.2594 1259.21V1191.56H82.6906V1259.21H86.2594Z" fill="#7CB8FE"/>
</g>
<path d="M597.509 1235.21C594.51 1235.21 591.971 1232.99 591.971 1226.57C591.971 1220.71 594.168 1217.43 598.594 1217.43C602.219 1217.43 603.932 1219.34 604.532 1222.97L602.077 1223.51C601.591 1220.86 600.707 1219.69 598.594 1219.69C595.652 1219.69 594.625 1222.11 594.625 1226.57C594.625 1230.96 595.767 1233.05 598.564 1233.05C601.563 1233.05 602.333 1230.73 602.39 1228.22H598.736V1226.17H604.818V1234.9H602.504V1231.22H602.077C601.335 1233.39 599.992 1235.21 597.509 1235.21ZM609.242 1234.9V1232.93H614.294V1217.75H609.498V1215.78H616.749V1232.93H621.374V1234.9H609.242ZM625.542 1228.19C625.542 1224.08 628.054 1221.23 632.022 1221.23C635.961 1221.23 638.474 1224.08 638.474 1228.19C638.474 1232.27 636.162 1235.24 632.022 1235.24C627.854 1235.24 625.542 1232.27 625.542 1228.19ZM628.025 1228.16C628.025 1231.02 629.196 1233.22 631.994 1233.22C634.792 1233.22 635.991 1231.02 635.991 1228.16C635.991 1225.31 634.705 1223.25 632.022 1223.25C629.311 1223.25 628.025 1225.31 628.025 1228.16ZM655.345 1228.31C655.345 1232.7 653.233 1235.24 650.521 1235.24C648.436 1235.24 646.723 1233.64 645.924 1231.68H645.581V1234.9H643.099V1215.78H645.581V1224.71H645.924C646.696 1222.77 648.123 1221.23 650.407 1221.23C653.262 1221.23 655.345 1223.85 655.345 1228.31ZM645.581 1227.39V1229.25C645.581 1231.45 647.096 1233.1 649.236 1233.1C651.577 1233.1 652.92 1231.39 652.92 1228.28C652.92 1225.14 651.549 1223.48 649.265 1223.48C647.066 1223.48 645.581 1225.11 645.581 1227.39ZM663.339 1235.19C660.884 1235.19 659.141 1233.82 659.141 1231.42C659.141 1229.19 660.655 1227.59 663.994 1227.59H668.364V1226.17C668.364 1224.51 667.507 1223.23 665.422 1223.23C663.624 1223.23 662.54 1224.2 662.026 1225.45L659.769 1224.65C660.484 1222.74 662.51 1221.23 665.479 1221.23C669.106 1221.23 670.846 1223.14 670.846 1226.14V1234.9H668.619V1231.9H668.163C667.393 1233.79 665.765 1235.19 663.339 1235.19ZM668.364 1229.11H664.481C662.567 1229.11 661.455 1229.88 661.455 1231.28C661.455 1232.33 662.339 1233.27 664.252 1233.27C666.678 1233.27 668.364 1231.85 668.364 1229.93V1229.11ZM676.042 1234.9V1232.93H681.094V1217.75H676.298V1215.78H683.55V1232.93H688.174V1234.9H676.042ZM709.013 1234.9V1217.77H713.037L714.636 1225.54C714.894 1226.79 715.093 1228.62 715.378 1230.56H715.835C716.178 1228.08 716.463 1226.14 716.893 1223.83L717.978 1217.77H722.002V1234.9H719.69V1226.77C719.69 1224.4 719.862 1221.71 719.976 1219.89H719.348C719.062 1221.74 718.804 1223.85 718.434 1225.65L716.893 1232.79H714.179L712.439 1224.97C712.154 1223.65 711.811 1221.6 711.525 1219.89H711.012C711.096 1221.66 711.297 1224.14 711.297 1226.02V1234.9H709.013ZM732.508 1235.24C728.454 1235.24 726.026 1232.79 726.026 1228.33C726.026 1223.88 728.596 1221.23 732.508 1221.23C736.333 1221.23 738.359 1223.6 738.359 1227.28C738.359 1227.68 738.332 1228.31 738.245 1228.85H728.511C728.653 1231.7 729.938 1233.27 732.508 1233.27C734.678 1233.27 735.676 1232.1 736.075 1230.73L738.188 1231.28C737.59 1233.59 735.82 1235.24 732.508 1235.24ZM728.538 1227.19H736.048C735.991 1224.51 734.819 1223.06 732.451 1223.06C730.137 1223.06 728.796 1224.4 728.538 1227.19ZM742.669 1234.9V1221.57H744.64V1223.63H744.926C745.353 1222.17 746.296 1221.29 747.552 1221.29C748.836 1221.29 749.578 1222.08 749.779 1223.63H750.092C750.549 1222.26 751.435 1221.29 752.718 1221.29C754.29 1221.29 755.26 1222.45 755.26 1224.45V1234.9H753.118V1225.14C753.118 1224.14 752.634 1223.46 751.748 1223.46C750.663 1223.46 750.035 1224.25 750.035 1225.88V1234.9H747.922V1225.14C747.922 1224.05 747.408 1223.46 746.524 1223.46C745.554 1223.46 744.811 1224.31 744.811 1225.74V1234.9H742.669ZM759.141 1228.19C759.141 1224.08 761.653 1221.23 765.623 1221.23C769.562 1221.23 772.075 1224.08 772.075 1228.19C772.075 1232.27 769.761 1235.24 765.623 1235.24C761.454 1235.24 759.141 1232.27 759.141 1228.19ZM761.626 1228.16C761.626 1231.02 762.795 1233.22 765.593 1233.22C768.391 1233.22 769.59 1231.02 769.59 1228.16C769.59 1225.31 768.306 1223.25 765.623 1223.25C762.909 1223.25 761.626 1225.31 761.626 1228.16ZM777.383 1234.9V1221.57H779.639V1225.51L779.895 1225.54C780.923 1222.66 782.864 1221.29 785.235 1221.29C786.518 1221.29 787.489 1221.57 788.832 1222.23L788.261 1224.48C787.089 1223.85 785.89 1223.51 784.805 1223.51C781.809 1223.51 779.838 1225.37 779.838 1228.68V1234.9H777.383ZM791.913 1239.75L792.313 1237.58C792.913 1237.7 793.484 1237.75 794.055 1237.75C795.739 1237.75 796.709 1237.3 797.908 1234.84L791.943 1221.57H794.711L796.453 1226.37C797.139 1228.31 798.137 1230.85 798.852 1232.99H799.564C800.279 1230.79 801.193 1228.19 801.848 1226.37L803.476 1221.57H806.13L800.135 1235.07C798.623 1238.44 796.967 1239.92 794.026 1239.92C793.142 1239.92 792.484 1239.84 791.913 1239.75Z" fill="#7CB8FE"/>
</g>
<defs>
<clipPath id="clip0_2_166">
<rect width="2783" height="1110" fill="white" transform="translate(2 216)"/>
</clipPath>
</defs>
</svg>
